<?xml version="1.0" encoding="UTF-8"?>

<svg version="1.2" baseProfile="tiny" width="137.08mm" height="82.56mm" viewBox="1541 1380 13708 8256" preserveAspectRatio="xMidYMid" fill-rule="evenodd" stroke-width="28.222" stroke-linejoin="round" xmlns="http://www.w3.org/2000/svg" xmlns:ooo="http://xml.openoffice.org/svg/export" xmlns:xlink="http://www.w3.org/1999/xlink" xml:space="preserve">
 <defs class="ClipPathGroup">
  <clipPath id="presentation_clip_path" clipPathUnits="userSpaceOnUse">
   <rect x="1541" y="1380" width="13708" height="8256"/>
  </clipPath>
 </defs>
 <defs class="TextShapeIndex">
  <g ooo:slide="id1" ooo:id-list="id3 id4 id5 id6 id7 id8 id9 id10 id11 id12 id13"/>
 </defs>
 <defs class="EmbeddedBulletChars">
  <g id="bullet-char-template(57356)" transform="scale(0.00048828125,-0.00048828125)">
   <path d="M 580,1141 L 1163,571 580,0 -4,571 580,1141 Z"/>
  </g>
  <g id="bullet-char-template(57354)" transform="scale(0.00048828125,-0.00048828125)">
   <path d="M 8,1128 L 1137,1128 1137,0 8,0 8,1128 Z"/>
  </g>
  <g id="bullet-char-template(10146)" transform="scale(0.00048828125,-0.00048828125)">
   <path d="M 174,0 L 602,739 174,1481 1456,739 174,0 Z M 1358,739 L 309,1346 659,739 1358,739 Z"/>
  </g>
  <g id="bullet-char-template(10132)" transform="scale(0.00048828125,-0.00048828125)">
   <path d="M 2015,739 L 1276,0 717,0 1260,543 174,543 174,936 1260,936 717,1481 1274,1481 2015,739 Z"/>
  </g>
  <g id="bullet-char-template(10007)" transform="scale(0.00048828125,-0.00048828125)">
   <path d="M 0,-2 C -7,14 -16,27 -25,37 L 356,567 C 262,823 215,952 215,954 215,979 228,992 255,992 264,992 276,990 289,987 310,991 331,999 354,1012 L 381,999 492,748 772,1049 836,1024 860,1049 C 881,1039 901,1025 922,1006 886,937 835,863 770,784 769,783 710,716 594,584 L 774,223 C 774,196 753,168 711,139 L 727,119 C 717,90 699,76 672,76 641,76 570,178 457,381 L 164,-76 C 142,-110 111,-127 72,-127 30,-127 9,-110 8,-76 1,-67 -2,-52 -2,-32 -2,-23 -1,-13 0,-2 Z"/>
  </g>
  <g id="bullet-char-template(10004)" transform="scale(0.00048828125,-0.00048828125)">
   <path d="M 285,-33 C 182,-33 111,30 74,156 52,228 41,333 41,471 41,549 55,616 82,672 116,743 169,778 240,778 293,778 328,747 346,684 L 369,508 C 377,444 397,411 428,410 L 1163,1116 C 1174,1127 1196,1133 1229,1133 1271,1133 1292,1118 1292,1087 L 1292,965 C 1292,929 1282,901 1262,881 L 442,47 C 390,-6 338,-33 285,-33 Z"/>
  </g>
  <g id="bullet-char-template(9679)" transform="scale(0.00048828125,-0.00048828125)">
   <path d="M 813,0 C 632,0 489,54 383,161 276,268 223,411 223,592 223,773 276,916 383,1023 489,1130 632,1184 813,1184 992,1184 1136,1130 1245,1023 1353,916 1407,772 1407,592 1407,412 1353,268 1245,161 1136,54 992,0 813,0 Z"/>
  </g>
  <g id="bullet-char-template(8226)" transform="scale(0.00048828125,-0.00048828125)">
   <path d="M 346,457 C 273,457 209,483 155,535 101,586 74,649 74,723 74,796 101,859 155,911 209,963 273,989 346,989 419,989 480,963 531,910 582,859 608,796 608,723 608,648 583,586 532,535 482,483 420,457 346,457 Z"/>
  </g>
  <g id="bullet-char-template(8211)" transform="scale(0.00048828125,-0.00048828125)">
   <path d="M -4,459 L 1135,459 1135,606 -4,606 -4,459 Z"/>
  </g>
 </defs>
 <defs class="TextEmbeddedBitmaps"/>
 <g class="SlideGroup">
  <g>
   <g id="id1" class="Slide" clip-path="url(#presentation_clip_path)">
    <g class="Page">
     <g class="com.sun.star.drawing.CustomShape">
      <g id="id3">
       <path fill="rgb(207,231,245)" stroke="none" d="M 12645,9635 L 10041,9635 10041,1380 15248,1380 15248,9635 12645,9635 Z"/>
       <path fill="none" stroke="rgb(52,101,164)" d="M 12645,9635 L 10041,9635 10041,1380 15248,1380 15248,9635 12645,9635 Z"/>
      </g>
     </g>
     <g class="com.sun.star.drawing.CustomShape">
      <g id="id4">
       <path fill="rgb(207,231,245)" stroke="none" d="M 4145,9635 L 1541,9635 1541,1380 6748,1380 6748,9635 4145,9635 Z"/>
       <path fill="none" stroke="rgb(52,101,164)" d="M 4145,9635 L 1541,9635 1541,1380 6748,1380 6748,9635 4145,9635 Z"/>
      </g>
     </g>
     <g class="com.sun.star.drawing.ConnectorShape">
      <g id="id5">
       <path fill="none" stroke="rgb(0,0,0)" d="M 6351,2839 L 9976,2839"/>
       <path fill="rgb(0,0,0)" stroke="none" d="M 10406,2839 L 9956,2689 9956,2989 10406,2839 Z"/>
      </g>
     </g>
     <g class="com.sun.star.drawing.ConnectorShape">
      <g id="id6">
       <path fill="none" stroke="rgb(0,0,0)" d="M 6351,5539 L 9976,5539"/>
       <path fill="rgb(0,0,0)" stroke="none" d="M 10406,5539 L 9956,5389 9956,5689 10406,5539 Z"/>
      </g>
     </g>
     <g class="com.sun.star.drawing.CustomShape">
      <g id="id7">
       <path fill="rgb(114,159,207)" stroke="none" d="M 1905,1914 C 1905,1772 2166,1631 2427,1631 L 5828,1631 C 6089,1631 6351,1772 6351,1914 L 6351,3761 C 6351,3903 6089,4045 5828,4045 L 2427,4045 C 2166,4045 1905,3903 1905,3761 L 1905,1914 Z M 1905,1631 L 1905,1631 Z M 6351,4045 L 6351,4045 Z"/>
       <path fill="none" stroke="rgb(52,101,164)" d="M 1905,1914 C 1905,1772 2166,1631 2427,1631 L 5828,1631 C 6089,1631 6351,1772 6351,1914 L 6351,3761 C 6351,3903 6089,4045 5828,4045 L 2427,4045 C 2166,4045 1905,3903 1905,3761 L 1905,1914 Z"/>
       <path fill="none" stroke="rgb(52,101,164)" d="M 1905,1631 L 1905,1631 Z"/>
       <path fill="none" stroke="rgb(52,101,164)" d="M 6351,4045 L 6351,4045 Z"/>
      </g>
     </g>
     <g class="com.sun.star.drawing.CustomShape">
      <g id="id8">
       <path fill="rgb(114,159,207)" stroke="none" d="M 1905,4614 C 1905,4472 2166,4331 2427,4331 L 5828,4331 C 6089,4331 6351,4472 6351,4614 L 6351,6461 C 6351,6603 6089,6745 5828,6745 L 2427,6745 C 2166,6745 1905,6603 1905,6461 L 1905,4614 Z M 1905,4331 L 1905,4331 Z M 6351,6745 L 6351,6745 Z"/>
       <path fill="none" stroke="rgb(52,101,164)" d="M 1905,4614 C 1905,4472 2166,4331 2427,4331 L 5828,4331 C 6089,4331 6351,4472 6351,4614 L 6351,6461 C 6351,6603 6089,6745 5828,6745 L 2427,6745 C 2166,6745 1905,6603 1905,6461 L 1905,4614 Z"/>
       <path fill="none" stroke="rgb(52,101,164)" d="M 1905,4331 L 1905,4331 Z"/>
       <path fill="none" stroke="rgb(52,101,164)" d="M 6351,6745 L 6351,6745 Z"/>
      </g>
     </g>
     <g class="com.sun.star.drawing.CustomShape">
      <g id="id9">
       <path fill="rgb(114,159,207)" stroke="none" d="M 10405,4614 C 10405,4472 10666,4331 10927,4331 L 14328,4331 C 14589,4331 14851,4472 14851,4614 L 14851,6461 C 14851,6603 14589,6745 14328,6745 L 10927,6745 C 10666,6745 10405,6603 10405,6461 L 10405,4614 Z M 10405,4331 L 10405,4331 Z M 14851,6745 L 14851,6745 Z"/>
       <path fill="none" stroke="rgb(52,101,164)" d="M 10405,4614 C 10405,4472 10666,4331 10927,4331 L 14328,4331 C 14589,4331 14851,4472 14851,4614 L 14851,6461 C 14851,6603 14589,6745 14328,6745 L 10927,6745 C 10666,6745 10405,6603 10405,6461 L 10405,4614 Z"/>
       <path fill="none" stroke="rgb(52,101,164)" d="M 10405,4331 L 10405,4331 Z"/>
       <path fill="none" stroke="rgb(52,101,164)" d="M 14851,6745 L 14851,6745 Z"/>
      </g>
     </g>
     <g class="com.sun.star.drawing.CustomShape">
      <g id="id10">
       <path fill="rgb(114,159,207)" stroke="none" d="M 10405,1914 C 10405,1772 10666,1631 10927,1631 L 14328,1631 C 14589,1631 14851,1772 14851,1914 L 14851,3761 C 14851,3903 14589,4045 14328,4045 L 10927,4045 C 10666,4045 10405,3903 10405,3761 L 10405,1914 Z M 10405,1631 L 10405,1631 Z M 14851,4045 L 14851,4045 Z"/>
       <path fill="none" stroke="rgb(52,101,164)" d="M 10405,1914 C 10405,1772 10666,1631 10927,1631 L 14328,1631 C 14589,1631 14851,1772 14851,1914 L 14851,3761 C 14851,3903 14589,4045 14328,4045 L 10927,4045 C 10666,4045 10405,3903 10405,3761 L 10405,1914 Z"/>
       <path fill="none" stroke="rgb(52,101,164)" d="M 10405,1631 L 10405,1631 Z"/>
       <path fill="none" stroke="rgb(52,101,164)" d="M 14851,4045 L 14851,4045 Z"/>
      </g>
     </g>
     <g class="com.sun.star.drawing.CustomShape">
      <g id="id11">
       <path fill="rgb(114,159,207)" stroke="none" d="M 1905,7314 C 1905,7172 2166,7031 2427,7031 L 5828,7031 C 6089,7031 6351,7172 6351,7314 L 6351,9161 C 6351,9303 6089,9445 5828,9445 L 2427,9445 C 2166,9445 1905,9303 1905,9161 L 1905,7314 Z M 1905,7031 L 1905,7031 Z M 6351,9445 L 6351,9445 Z"/>
       <path fill="none" stroke="rgb(52,101,164)" d="M 1905,7314 C 1905,7172 2166,7031 2427,7031 L 5828,7031 C 6089,7031 6351,7172 6351,7314 L 6351,9161 C 6351,9303 6089,9445 5828,9445 L 2427,9445 C 2166,9445 1905,9303 1905,9161 L 1905,7314 Z"/>
       <path fill="none" stroke="rgb(52,101,164)" d="M 1905,7031 L 1905,7031 Z"/>
       <path fill="none" stroke="rgb(52,101,164)" d="M 6351,9445 L 6351,9445 Z"/>
      </g>
     </g>
     <g class="com.sun.star.drawing.CustomShape">
      <g id="id12">
       <path fill="rgb(114,159,207)" stroke="none" d="M 10405,7314 C 10405,7172 10666,7031 10927,7031 L 14328,7031 C 14589,7031 14851,7172 14851,7314 L 14851,9161 C 14851,9303 14589,9445 14328,9445 L 10927,9445 C 10666,9445 10405,9303 10405,9161 L 10405,7314 Z M 10405,7031 L 10405,7031 Z M 14851,9445 L 14851,9445 Z"/>
       <path fill="none" stroke="rgb(52,101,164)" d="M 10405,7314 C 10405,7172 10666,7031 10927,7031 L 14328,7031 C 14589,7031 14851,7172 14851,7314 L 14851,9161 C 14851,9303 14589,9445 14328,9445 L 10927,9445 C 10666,9445 10405,9303 10405,9161 L 10405,7314 Z"/>
       <path fill="none" stroke="rgb(52,101,164)" d="M 10405,7031 L 10405,7031 Z"/>
       <path fill="none" stroke="rgb(52,101,164)" d="M 14851,9445 L 14851,9445 Z"/>
      </g>
     </g>
     <g class="com.sun.star.drawing.ConnectorShape">
      <g id="id13">
       <path fill="none" stroke="rgb(0,0,0)" d="M 6351,8239 L 9976,8239"/>
       <path fill="rgb(0,0,0)" stroke="none" d="M 10406,8239 L 9956,8089 9956,8389 10406,8239 Z"/>
      </g>
     </g>
    </g>
   </g>
  </g>
 </g>
</svg>