<?xml version="1.0" encoding="UTF-8"?>

<svg version="1.2" baseProfile="tiny" width="137.08mm" height="82.56mm" viewBox="1541 11080 13708 8256" preserveAspectRatio="xMidYMid" fill-rule="evenodd" stroke-width="28.222" stroke-linejoin="round" xmlns="http://www.w3.org/2000/svg" xmlns:ooo="http://xml.openoffice.org/svg/export" xmlns:xlink="http://www.w3.org/1999/xlink" xml:space="preserve">
 <defs class="ClipPathGroup">
  <clipPath id="presentation_clip_path" clipPathUnits="userSpaceOnUse">
   <rect x="1541" y="11080" width="13708" height="8256"/>
  </clipPath>
 </defs>
 <defs class="TextShapeIndex">
  <g ooo:slide="id1" ooo:id-list="id3 id4 id5 id6 id7 id8 id9 id10 id11 id12 id13 id14 id15 id16 id17 id18 id19"/>
 </defs>
 <defs class="EmbeddedBulletChars">
  <g id="bullet-char-template(57356)" transform="scale(0.00048828125,-0.00048828125)">
   <path d="M 580,1141 L 1163,571 580,0 -4,571 580,1141 Z"/>
  </g>
  <g id="bullet-char-template(57354)" transform="scale(0.00048828125,-0.00048828125)">
   <path d="M 8,1128 L 1137,1128 1137,0 8,0 8,1128 Z"/>
  </g>
  <g id="bullet-char-template(10146)" transform="scale(0.00048828125,-0.00048828125)">
   <path d="M 174,0 L 602,739 174,1481 1456,739 174,0 Z M 1358,739 L 309,1346 659,739 1358,739 Z"/>
  </g>
  <g id="bullet-char-template(10132)" transform="scale(0.00048828125,-0.00048828125)">
   <path d="M 2015,739 L 1276,0 717,0 1260,543 174,543 174,936 1260,936 717,1481 1274,1481 2015,739 Z"/>
  </g>
  <g id="bullet-char-template(10007)" transform="scale(0.00048828125,-0.00048828125)">
   <path d="M 0,-2 C -7,14 -16,27 -25,37 L 356,567 C 262,823 215,952 215,954 215,979 228,992 255,992 264,992 276,990 289,987 310,991 331,999 354,1012 L 381,999 492,748 772,1049 836,1024 860,1049 C 881,1039 901,1025 922,1006 886,937 835,863 770,784 769,783 710,716 594,584 L 774,223 C 774,196 753,168 711,139 L 727,119 C 717,90 699,76 672,76 641,76 570,178 457,381 L 164,-76 C 142,-110 111,-127 72,-127 30,-127 9,-110 8,-76 1,-67 -2,-52 -2,-32 -2,-23 -1,-13 0,-2 Z"/>
  </g>
  <g id="bullet-char-template(10004)" transform="scale(0.00048828125,-0.00048828125)">
   <path d="M 285,-33 C 182,-33 111,30 74,156 52,228 41,333 41,471 41,549 55,616 82,672 116,743 169,778 240,778 293,778 328,747 346,684 L 369,508 C 377,444 397,411 428,410 L 1163,1116 C 1174,1127 1196,1133 1229,1133 1271,1133 1292,1118 1292,1087 L 1292,965 C 1292,929 1282,901 1262,881 L 442,47 C 390,-6 338,-33 285,-33 Z"/>
  </g>
  <g id="bullet-char-template(9679)" transform="scale(0.00048828125,-0.00048828125)">
   <path d="M 813,0 C 632,0 489,54 383,161 276,268 223,411 223,592 223,773 276,916 383,1023 489,1130 632,1184 813,1184 992,1184 1136,1130 1245,1023 1353,916 1407,772 1407,592 1407,412 1353,268 1245,161 1136,54 992,0 813,0 Z"/>
  </g>
  <g id="bullet-char-template(8226)" transform="scale(0.00048828125,-0.00048828125)">
   <path d="M 346,457 C 273,457 209,483 155,535 101,586 74,649 74,723 74,796 101,859 155,911 209,963 273,989 346,989 419,989 480,963 531,910 582,859 608,796 608,723 608,648 583,586 532,535 482,483 420,457 346,457 Z"/>
  </g>
  <g id="bullet-char-template(8211)" transform="scale(0.00048828125,-0.00048828125)">
   <path d="M -4,459 L 1135,459 1135,606 -4,606 -4,459 Z"/>
  </g>
 </defs>
 <defs class="TextEmbeddedBitmaps"/>
 <g class="SlideGroup">
  <g>
   <g id="id1" class="Slide" clip-path="url(#presentation_clip_path)">
    <g class="Page">
     <g class="com.sun.star.drawing.CustomShape">
      <g id="id3">
       <path fill="rgb(207,231,245)" stroke="none" d="M 12645,19335 L 10041,19335 10041,11080 15248,11080 15248,19335 12645,19335 Z"/>
       <path fill="none" stroke="rgb(52,101,164)" d="M 12645,19335 L 10041,19335 10041,11080 15248,11080 15248,19335 12645,19335 Z"/>
      </g>
     </g>
     <g class="com.sun.star.drawing.CustomShape">
      <g id="id4">
       <path fill="rgb(207,231,245)" stroke="none" d="M 4145,19335 L 1541,19335 1541,11080 6748,11080 6748,19335 4145,19335 Z"/>
       <path fill="none" stroke="rgb(52,101,164)" d="M 4145,19335 L 1541,19335 1541,11080 6748,11080 6748,19335 4145,19335 Z"/>
      </g>
     </g>
     <g class="com.sun.star.drawing.ConnectorShape">
      <g id="id5">
       <path fill="none" stroke="rgb(0,0,0)" d="M 6351,12539 L 9976,12539"/>
       <path fill="rgb(0,0,0)" stroke="none" d="M 10406,12539 L 9956,12389 9956,12689 10406,12539 Z"/>
      </g>
     </g>
     <g class="com.sun.star.drawing.ConnectorShape">
      <g id="id6">
       <path fill="none" stroke="rgb(0,0,0)" d="M 6351,15239 L 9976,15239"/>
       <path fill="rgb(0,0,0)" stroke="none" d="M 10406,15239 L 9956,15089 9956,15389 10406,15239 Z"/>
      </g>
     </g>
     <g class="com.sun.star.drawing.CustomShape">
      <g id="id7">
       <path fill="rgb(114,159,207)" stroke="none" d="M 1905,11614 C 1905,11472 2166,11331 2427,11331 L 5828,11331 C 6089,11331 6351,11472 6351,11614 L 6351,13461 C 6351,13603 6089,13745 5828,13745 L 2427,13745 C 2166,13745 1905,13603 1905,13461 L 1905,11614 Z M 1905,11331 L 1905,11331 Z M 6351,13745 L 6351,13745 Z"/>
       <path fill="none" stroke="rgb(52,101,164)" d="M 1905,11614 C 1905,11472 2166,11331 2427,11331 L 5828,11331 C 6089,11331 6351,11472 6351,11614 L 6351,13461 C 6351,13603 6089,13745 5828,13745 L 2427,13745 C 2166,13745 1905,13603 1905,13461 L 1905,11614 Z"/>
       <path fill="none" stroke="rgb(52,101,164)" d="M 1905,11331 L 1905,11331 Z"/>
       <path fill="none" stroke="rgb(52,101,164)" d="M 6351,13745 L 6351,13745 Z"/>
      </g>
     </g>
     <g class="com.sun.star.drawing.CustomShape">
      <g id="id8">
       <path fill="rgb(114,159,207)" stroke="none" d="M 1905,14314 C 1905,14172 2166,14031 2427,14031 L 5828,14031 C 6089,14031 6351,14172 6351,14314 L 6351,16161 C 6351,16303 6089,16445 5828,16445 L 2427,16445 C 2166,16445 1905,16303 1905,16161 L 1905,14314 Z M 1905,14031 L 1905,14031 Z M 6351,16445 L 6351,16445 Z"/>
       <path fill="none" stroke="rgb(52,101,164)" d="M 1905,14314 C 1905,14172 2166,14031 2427,14031 L 5828,14031 C 6089,14031 6351,14172 6351,14314 L 6351,16161 C 6351,16303 6089,16445 5828,16445 L 2427,16445 C 2166,16445 1905,16303 1905,16161 L 1905,14314 Z"/>
       <path fill="none" stroke="rgb(52,101,164)" d="M 1905,14031 L 1905,14031 Z"/>
       <path fill="none" stroke="rgb(52,101,164)" d="M 6351,16445 L 6351,16445 Z"/>
      </g>
     </g>
     <g class="com.sun.star.drawing.CustomShape">
      <g id="id9">
       <path fill="rgb(114,159,207)" stroke="none" d="M 10405,14314 C 10405,14172 10666,14031 10927,14031 L 14328,14031 C 14589,14031 14851,14172 14851,14314 L 14851,16161 C 14851,16303 14589,16445 14328,16445 L 10927,16445 C 10666,16445 10405,16303 10405,16161 L 10405,14314 Z M 10405,14031 L 10405,14031 Z M 14851,16445 L 14851,16445 Z"/>
       <path fill="none" stroke="rgb(52,101,164)" d="M 10405,14314 C 10405,14172 10666,14031 10927,14031 L 14328,14031 C 14589,14031 14851,14172 14851,14314 L 14851,16161 C 14851,16303 14589,16445 14328,16445 L 10927,16445 C 10666,16445 10405,16303 10405,16161 L 10405,14314 Z"/>
       <path fill="none" stroke="rgb(52,101,164)" d="M 10405,14031 L 10405,14031 Z"/>
       <path fill="none" stroke="rgb(52,101,164)" d="M 14851,16445 L 14851,16445 Z"/>
      </g>
     </g>
     <g class="com.sun.star.drawing.CustomShape">
      <g id="id10">
       <path fill="rgb(114,159,207)" stroke="none" d="M 10405,11614 C 10405,11472 10666,11331 10927,11331 L 14328,11331 C 14589,11331 14851,11472 14851,11614 L 14851,13461 C 14851,13603 14589,13745 14328,13745 L 10927,13745 C 10666,13745 10405,13603 10405,13461 L 10405,11614 Z M 10405,11331 L 10405,11331 Z M 14851,13745 L 14851,13745 Z"/>
       <path fill="none" stroke="rgb(52,101,164)" d="M 10405,11614 C 10405,11472 10666,11331 10927,11331 L 14328,11331 C 14589,11331 14851,11472 14851,11614 L 14851,13461 C 14851,13603 14589,13745 14328,13745 L 10927,13745 C 10666,13745 10405,13603 10405,13461 L 10405,11614 Z"/>
       <path fill="none" stroke="rgb(52,101,164)" d="M 10405,11331 L 10405,11331 Z"/>
       <path fill="none" stroke="rgb(52,101,164)" d="M 14851,13745 L 14851,13745 Z"/>
      </g>
     </g>
     <g class="com.sun.star.drawing.CustomShape">
      <g id="id11">
       <path fill="rgb(114,159,207)" stroke="none" d="M 1905,17014 C 1905,16872 2166,16731 2427,16731 L 5828,16731 C 6089,16731 6351,16872 6351,17014 L 6351,18861 C 6351,19003 6089,19145 5828,19145 L 2427,19145 C 2166,19145 1905,19003 1905,18861 L 1905,17014 Z M 1905,16731 L 1905,16731 Z M 6351,19145 L 6351,19145 Z"/>
       <path fill="none" stroke="rgb(52,101,164)" d="M 1905,17014 C 1905,16872 2166,16731 2427,16731 L 5828,16731 C 6089,16731 6351,16872 6351,17014 L 6351,18861 C 6351,19003 6089,19145 5828,19145 L 2427,19145 C 2166,19145 1905,19003 1905,18861 L 1905,17014 Z"/>
       <path fill="none" stroke="rgb(52,101,164)" d="M 1905,16731 L 1905,16731 Z"/>
       <path fill="none" stroke="rgb(52,101,164)" d="M 6351,19145 L 6351,19145 Z"/>
      </g>
     </g>
     <g class="com.sun.star.drawing.CustomShape">
      <g id="id12">
       <path fill="rgb(114,159,207)" stroke="none" d="M 10405,17014 C 10405,16872 10666,16731 10927,16731 L 14328,16731 C 14589,16731 14851,16872 14851,17014 L 14851,18861 C 14851,19003 14589,19145 14328,19145 L 10927,19145 C 10666,19145 10405,19003 10405,18861 L 10405,17014 Z M 10405,16731 L 10405,16731 Z M 14851,19145 L 14851,19145 Z"/>
       <path fill="none" stroke="rgb(52,101,164)" d="M 10405,17014 C 10405,16872 10666,16731 10927,16731 L 14328,16731 C 14589,16731 14851,16872 14851,17014 L 14851,18861 C 14851,19003 14589,19145 14328,19145 L 10927,19145 C 10666,19145 10405,19003 10405,18861 L 10405,17014 Z"/>
       <path fill="none" stroke="rgb(52,101,164)" d="M 10405,16731 L 10405,16731 Z"/>
       <path fill="none" stroke="rgb(52,101,164)" d="M 14851,19145 L 14851,19145 Z"/>
      </g>
     </g>
     <g class="com.sun.star.drawing.ConnectorShape">
      <g id="id13">
       <path fill="none" stroke="rgb(0,0,0)" d="M 6351,17939 L 9976,17939"/>
       <path fill="rgb(0,0,0)" stroke="none" d="M 10406,17939 L 9956,17789 9956,18089 10406,17939 Z"/>
      </g>
     </g>
     <g class="com.sun.star.drawing.ConnectorShape">
      <g id="id14">
       <path fill="none" stroke="rgb(0,0,0)" d="M 6351,12539 L 10048,15001"/>
       <path fill="rgb(0,0,0)" stroke="none" d="M 10406,15239 L 10115,14865 9948,15114 10406,15239 Z"/>
      </g>
     </g>
     <g class="com.sun.star.drawing.ConnectorShape">
      <g id="id15">
       <path fill="none" stroke="rgb(0,0,0)" d="M 6351,12539 L 10148,17595"/>
       <path fill="rgb(0,0,0)" stroke="none" d="M 10406,17939 L 10256,17489 10016,17669 10406,17939 Z"/>
      </g>
     </g>
     <g class="com.sun.star.drawing.ConnectorShape">
      <g id="id16">
       <path fill="none" stroke="rgb(0,0,0)" d="M 6351,15239 L 10048,12777"/>
       <path fill="rgb(0,0,0)" stroke="none" d="M 10406,12539 L 9948,12664 10115,12913 10406,12539 Z"/>
      </g>
     </g>
     <g class="com.sun.star.drawing.ConnectorShape">
      <g id="id17">
       <path fill="none" stroke="rgb(0,0,0)" d="M 6351,15239 L 10048,17700"/>
       <path fill="rgb(0,0,0)" stroke="none" d="M 10406,17938 L 10115,17564 9948,17814 10406,17938 Z"/>
      </g>
     </g>
     <g class="com.sun.star.drawing.ConnectorShape">
      <g id="id18">
       <path fill="none" stroke="rgb(0,0,0)" d="M 6351,17939 L 10148,12883"/>
       <path fill="rgb(0,0,0)" stroke="none" d="M 10406,12539 L 10016,12809 10256,12989 10406,12539 Z"/>
      </g>
     </g>
     <g class="com.sun.star.drawing.ConnectorShape">
      <g id="id19">
       <path fill="none" stroke="rgb(0,0,0)" d="M 6351,17939 L 10048,15476"/>
       <path fill="rgb(0,0,0)" stroke="none" d="M 10406,15238 L 9948,15363 10115,15612 10406,15238 Z"/>
      </g>
     </g>
    </g>
   </g>
  </g>
 </g>
</svg>