<?xml version="1.0" encoding="UTF-8"?>

<svg version="1.2" baseProfile="tiny" width="137.08mm" height="125.89mm" viewBox="1541 1381 13708 12589" preserveAspectRatio="xMidYMid" fill-rule="evenodd" stroke-width="28.222" stroke-linejoin="round" xmlns="http://www.w3.org/2000/svg" xmlns:ooo="http://xml.openoffice.org/svg/export" xmlns:xlink="http://www.w3.org/1999/xlink" xml:space="preserve">
 <defs class="ClipPathGroup">
  <clipPath id="presentation_clip_path" clipPathUnits="userSpaceOnUse">
   <rect x="1541" y="1381" width="13708" height="12589"/>
  </clipPath>
 </defs>
 <defs class="TextShapeIndex">
  <g ooo:slide="id1" ooo:id-list="id3 id4 id5 id6 id7 id8 id9 id10 id11 id12 id13 id14 id15 id16 id17"/>
 </defs>
 <defs class="EmbeddedBulletChars">
  <g id="bullet-char-template(57356)" transform="scale(0.00048828125,-0.00048828125)">
   <path d="M 580,1141 L 1163,571 580,0 -4,571 580,1141 Z"/>
  </g>
  <g id="bullet-char-template(57354)" transform="scale(0.00048828125,-0.00048828125)">
   <path d="M 8,1128 L 1137,1128 1137,0 8,0 8,1128 Z"/>
  </g>
  <g id="bullet-char-template(10146)" transform="scale(0.00048828125,-0.00048828125)">
   <path d="M 174,0 L 602,739 174,1481 1456,739 174,0 Z M 1358,739 L 309,1346 659,739 1358,739 Z"/>
  </g>
  <g id="bullet-char-template(10132)" transform="scale(0.00048828125,-0.00048828125)">
   <path d="M 2015,739 L 1276,0 717,0 1260,543 174,543 174,936 1260,936 717,1481 1274,1481 2015,739 Z"/>
  </g>
  <g id="bullet-char-template(10007)" transform="scale(0.00048828125,-0.00048828125)">
   <path d="M 0,-2 C -7,14 -16,27 -25,37 L 356,567 C 262,823 215,952 215,954 215,979 228,992 255,992 264,992 276,990 289,987 310,991 331,999 354,1012 L 381,999 492,748 772,1049 836,1024 860,1049 C 881,1039 901,1025 922,1006 886,937 835,863 770,784 769,783 710,716 594,584 L 774,223 C 774,196 753,168 711,139 L 727,119 C 717,90 699,76 672,76 641,76 570,178 457,381 L 164,-76 C 142,-110 111,-127 72,-127 30,-127 9,-110 8,-76 1,-67 -2,-52 -2,-32 -2,-23 -1,-13 0,-2 Z"/>
  </g>
  <g id="bullet-char-template(10004)" transform="scale(0.00048828125,-0.00048828125)">
   <path d="M 285,-33 C 182,-33 111,30 74,156 52,228 41,333 41,471 41,549 55,616 82,672 116,743 169,778 240,778 293,778 328,747 346,684 L 369,508 C 377,444 397,411 428,410 L 1163,1116 C 1174,1127 1196,1133 1229,1133 1271,1133 1292,1118 1292,1087 L 1292,965 C 1292,929 1282,901 1262,881 L 442,47 C 390,-6 338,-33 285,-33 Z"/>
  </g>
  <g id="bullet-char-template(9679)" transform="scale(0.00048828125,-0.00048828125)">
   <path d="M 813,0 C 632,0 489,54 383,161 276,268 223,411 223,592 223,773 276,916 383,1023 489,1130 632,1184 813,1184 992,1184 1136,1130 1245,1023 1353,916 1407,772 1407,592 1407,412 1353,268 1245,161 1136,54 992,0 813,0 Z"/>
  </g>
  <g id="bullet-char-template(8226)" transform="scale(0.00048828125,-0.00048828125)">
   <path d="M 346,457 C 273,457 209,483 155,535 101,586 74,649 74,723 74,796 101,859 155,911 209,963 273,989 346,989 419,989 480,963 531,910 582,859 608,796 608,723 608,648 583,586 532,535 482,483 420,457 346,457 Z"/>
  </g>
  <g id="bullet-char-template(8211)" transform="scale(0.00048828125,-0.00048828125)">
   <path d="M -4,459 L 1135,459 1135,606 -4,606 -4,459 Z"/>
  </g>
 </defs>
 <defs class="TextEmbeddedBitmaps"/>
 <g class="SlideGroup">
  <g>
   <g id="id1" class="Slide" clip-path="url(#presentation_clip_path)">
    <g class="Page">
     <g class="com.sun.star.drawing.CustomShape">
      <g id="id3">
       <path fill="rgb(207,231,245)" stroke="none" d="M 12645,13129 L 10041,13129 10041,2080 15248,2080 15248,13129 12645,13129 Z"/>
       <path fill="none" stroke="rgb(52,101,164)" d="M 12645,13129 L 10041,13129 10041,2080 15248,2080 15248,13129 12645,13129 Z"/>
      </g>
     </g>
     <g class="com.sun.star.drawing.CustomShape">
      <g id="id4">
       <path fill="rgb(207,231,245)" stroke="none" d="M 4145,6969 L 1541,6969 1541,1381 6748,1381 6748,6969 4145,6969 Z"/>
       <path fill="none" stroke="rgb(52,101,164)" d="M 4145,6969 L 1541,6969 1541,1381 6748,1381 6748,6969 4145,6969 Z"/>
      </g>
     </g>
     <g class="com.sun.star.drawing.ConnectorShape">
      <g id="id5">
       <path fill="none" stroke="rgb(0,0,0)" d="M 6351,2839 L 9982,3466"/>
       <path fill="rgb(0,0,0)" stroke="none" d="M 10406,3539 L 9988,3315 9937,3610 10406,3539 Z"/>
      </g>
     </g>
     <g class="com.sun.star.drawing.ConnectorShape">
      <g id="id6">
       <path fill="none" stroke="rgb(0,0,0)" d="M 6351,5539 L 9982,6166"/>
       <path fill="rgb(0,0,0)" stroke="none" d="M 10406,6239 L 9988,6015 9937,6310 10406,6239 Z"/>
      </g>
     </g>
     <g class="com.sun.star.drawing.CustomShape">
      <g id="id7">
       <path fill="rgb(114,159,207)" stroke="none" d="M 1905,1914 C 1905,1772 2166,1631 2427,1631 L 5828,1631 C 6089,1631 6351,1772 6351,1914 L 6351,3761 C 6351,3903 6089,4045 5828,4045 L 2427,4045 C 2166,4045 1905,3903 1905,3761 L 1905,1914 Z M 1905,1631 L 1905,1631 Z M 6351,4045 L 6351,4045 Z"/>
       <path fill="none" stroke="rgb(52,101,164)" d="M 1905,1914 C 1905,1772 2166,1631 2427,1631 L 5828,1631 C 6089,1631 6351,1772 6351,1914 L 6351,3761 C 6351,3903 6089,4045 5828,4045 L 2427,4045 C 2166,4045 1905,3903 1905,3761 L 1905,1914 Z"/>
       <path fill="none" stroke="rgb(52,101,164)" d="M 1905,1631 L 1905,1631 Z"/>
       <path fill="none" stroke="rgb(52,101,164)" d="M 6351,4045 L 6351,4045 Z"/>
      </g>
     </g>
     <g class="com.sun.star.drawing.CustomShape">
      <g id="id8">
       <path fill="rgb(114,159,207)" stroke="none" d="M 1905,4614 C 1905,4472 2166,4331 2427,4331 L 5828,4331 C 6089,4331 6351,4472 6351,4614 L 6351,6461 C 6351,6603 6089,6745 5828,6745 L 2427,6745 C 2166,6745 1905,6603 1905,6461 L 1905,4614 Z M 1905,4331 L 1905,4331 Z M 6351,6745 L 6351,6745 Z"/>
       <path fill="none" stroke="rgb(52,101,164)" d="M 1905,4614 C 1905,4472 2166,4331 2427,4331 L 5828,4331 C 6089,4331 6351,4472 6351,4614 L 6351,6461 C 6351,6603 6089,6745 5828,6745 L 2427,6745 C 2166,6745 1905,6603 1905,6461 L 1905,4614 Z"/>
       <path fill="none" stroke="rgb(52,101,164)" d="M 1905,4331 L 1905,4331 Z"/>
       <path fill="none" stroke="rgb(52,101,164)" d="M 6351,6745 L 6351,6745 Z"/>
      </g>
     </g>
     <g class="com.sun.star.drawing.CustomShape">
      <g id="id9">
       <path fill="rgb(114,159,207)" stroke="none" d="M 10405,5314 C 10405,5172 10666,5031 10927,5031 L 14328,5031 C 14589,5031 14851,5172 14851,5314 L 14851,7161 C 14851,7303 14589,7445 14328,7445 L 10927,7445 C 10666,7445 10405,7303 10405,7161 L 10405,5314 Z M 10405,5031 L 10405,5031 Z M 14851,7445 L 14851,7445 Z"/>
       <path fill="none" stroke="rgb(52,101,164)" d="M 10405,5314 C 10405,5172 10666,5031 10927,5031 L 14328,5031 C 14589,5031 14851,5172 14851,5314 L 14851,7161 C 14851,7303 14589,7445 14328,7445 L 10927,7445 C 10666,7445 10405,7303 10405,7161 L 10405,5314 Z"/>
       <path fill="none" stroke="rgb(52,101,164)" d="M 10405,5031 L 10405,5031 Z"/>
       <path fill="none" stroke="rgb(52,101,164)" d="M 14851,7445 L 14851,7445 Z"/>
      </g>
     </g>
     <g class="com.sun.star.drawing.CustomShape">
      <g id="id10">
       <path fill="rgb(114,159,207)" stroke="none" d="M 10405,2614 C 10405,2472 10666,2331 10927,2331 L 14328,2331 C 14589,2331 14851,2472 14851,2614 L 14851,4461 C 14851,4603 14589,4745 14328,4745 L 10927,4745 C 10666,4745 10405,4603 10405,4461 L 10405,2614 Z M 10405,2331 L 10405,2331 Z M 14851,4745 L 14851,4745 Z"/>
       <path fill="none" stroke="rgb(52,101,164)" d="M 10405,2614 C 10405,2472 10666,2331 10927,2331 L 14328,2331 C 14589,2331 14851,2472 14851,2614 L 14851,4461 C 14851,4603 14589,4745 14328,4745 L 10927,4745 C 10666,4745 10405,4603 10405,4461 L 10405,2614 Z"/>
       <path fill="none" stroke="rgb(52,101,164)" d="M 10405,2331 L 10405,2331 Z"/>
       <path fill="none" stroke="rgb(52,101,164)" d="M 14851,4745 L 14851,4745 Z"/>
      </g>
     </g>
     <g class="com.sun.star.drawing.CustomShape">
      <g id="id11">
       <path fill="rgb(114,159,207)" stroke="none" d="M 10405,8014 C 10405,7872 10666,7731 10927,7731 L 14328,7731 C 14589,7731 14851,7872 14851,8014 L 14851,9861 C 14851,10003 14589,10145 14328,10145 L 10927,10145 C 10666,10145 10405,10003 10405,9861 L 10405,8014 Z M 10405,7731 L 10405,7731 Z M 14851,10145 L 14851,10145 Z"/>
       <path fill="none" stroke="rgb(52,101,164)" d="M 10405,8014 C 10405,7872 10666,7731 10927,7731 L 14328,7731 C 14589,7731 14851,7872 14851,8014 L 14851,9861 C 14851,10003 14589,10145 14328,10145 L 10927,10145 C 10666,10145 10405,10003 10405,9861 L 10405,8014 Z"/>
       <path fill="none" stroke="rgb(52,101,164)" d="M 10405,7731 L 10405,7731 Z"/>
       <path fill="none" stroke="rgb(52,101,164)" d="M 14851,10145 L 14851,10145 Z"/>
      </g>
     </g>
     <g class="com.sun.star.drawing.CustomShape">
      <g id="id12">
       <path fill="rgb(114,159,207)" stroke="none" d="M 10405,10714 C 10405,10572 10666,10431 10927,10431 L 14328,10431 C 14589,10431 14851,10572 14851,10714 L 14851,12561 C 14851,12703 14589,12845 14328,12845 L 10927,12845 C 10666,12845 10405,12703 10405,12561 L 10405,10714 Z M 10405,10431 L 10405,10431 Z M 14851,12845 L 14851,12845 Z"/>
       <path fill="none" stroke="rgb(52,101,164)" d="M 10405,10714 C 10405,10572 10666,10431 10927,10431 L 14328,10431 C 14589,10431 14851,10572 14851,10714 L 14851,12561 C 14851,12703 14589,12845 14328,12845 L 10927,12845 C 10666,12845 10405,12703 10405,12561 L 10405,10714 Z"/>
       <path fill="none" stroke="rgb(52,101,164)" d="M 10405,10431 L 10405,10431 Z"/>
       <path fill="none" stroke="rgb(52,101,164)" d="M 14851,12845 L 14851,12845 Z"/>
      </g>
     </g>
     <g class="com.sun.star.drawing.CustomShape">
      <g id="id13">
       <path fill="rgb(207,231,245)" stroke="none" d="M 4145,13969 L 1541,13969 1541,8381 6748,8381 6748,13969 4145,13969 Z"/>
       <path fill="none" stroke="rgb(52,101,164)" d="M 4145,13969 L 1541,13969 1541,8381 6748,8381 6748,13969 4145,13969 Z"/>
      </g>
     </g>
     <g class="com.sun.star.drawing.CustomShape">
      <g id="id14">
       <path fill="rgb(114,159,207)" stroke="none" d="M 1905,8914 C 1905,8772 2166,8631 2427,8631 L 5828,8631 C 6089,8631 6351,8772 6351,8914 L 6351,10761 C 6351,10903 6089,11045 5828,11045 L 2427,11045 C 2166,11045 1905,10903 1905,10761 L 1905,8914 Z M 1905,8631 L 1905,8631 Z M 6351,11045 L 6351,11045 Z"/>
       <path fill="none" stroke="rgb(52,101,164)" d="M 1905,8914 C 1905,8772 2166,8631 2427,8631 L 5828,8631 C 6089,8631 6351,8772 6351,8914 L 6351,10761 C 6351,10903 6089,11045 5828,11045 L 2427,11045 C 2166,11045 1905,10903 1905,10761 L 1905,8914 Z"/>
       <path fill="none" stroke="rgb(52,101,164)" d="M 1905,8631 L 1905,8631 Z"/>
       <path fill="none" stroke="rgb(52,101,164)" d="M 6351,11045 L 6351,11045 Z"/>
      </g>
     </g>
     <g class="com.sun.star.drawing.CustomShape">
      <g id="id15">
       <path fill="rgb(114,159,207)" stroke="none" d="M 1905,11614 C 1905,11472 2166,11331 2427,11331 L 5828,11331 C 6089,11331 6351,11472 6351,11614 L 6351,13461 C 6351,13603 6089,13745 5828,13745 L 2427,13745 C 2166,13745 1905,13603 1905,13461 L 1905,11614 Z M 1905,11331 L 1905,11331 Z M 6351,13745 L 6351,13745 Z"/>
       <path fill="none" stroke="rgb(52,101,164)" d="M 1905,11614 C 1905,11472 2166,11331 2427,11331 L 5828,11331 C 6089,11331 6351,11472 6351,11614 L 6351,13461 C 6351,13603 6089,13745 5828,13745 L 2427,13745 C 2166,13745 1905,13603 1905,13461 L 1905,11614 Z"/>
       <path fill="none" stroke="rgb(52,101,164)" d="M 1905,11331 L 1905,11331 Z"/>
       <path fill="none" stroke="rgb(52,101,164)" d="M 6351,13745 L 6351,13745 Z"/>
      </g>
     </g>
     <g class="com.sun.star.drawing.ConnectorShape">
      <g id="id16">
       <path fill="none" stroke="rgb(0,0,0)" d="M 6351,9839 L 9986,9032"/>
       <path fill="rgb(0,0,0)" stroke="none" d="M 10406,8939 L 9934,8890 9999,9183 10406,8939 Z"/>
      </g>
     </g>
     <g class="com.sun.star.drawing.ConnectorShape">
      <g id="id17">
       <path fill="none" stroke="rgb(0,0,0)" d="M 6351,12539 L 9986,11732"/>
       <path fill="rgb(0,0,0)" stroke="none" d="M 10406,11639 L 9934,11590 9999,11883 10406,11639 Z"/>
      </g>
     </g>
    </g>
   </g>
  </g>
 </g>
</svg>